HIERARCHY
ROOT Hips
{
	OFFSET 0.000000 0.000000 0.000000
	CHANNELS 6 Xposition Yposition Zposition Xrotation Yrotation Zrotation
	JOINT Thigh.L
	{
		OFFSET 0.052806 0.030085 -0.091345
		CHANNELS 3 Xrotation Yrotation Zrotation
		JOINT Shin.L
		{
			OFFSET 0.053562 0.015378 -0.409636
			CHANNELS 3 Xrotation Yrotation Zrotation
			JOINT Foot.L
			{
				OFFSET -0.040339 0.032329 -0.427909
				CHANNELS 3 Xrotation Yrotation Zrotation
				JOINT Toe.L
				{
					OFFSET 0.044272 -0.118482 -0.063199
					CHANNELS 3 Xrotation Yrotation Zrotation
					End Site
					{
						OFFSET 0.000000 0.050000 0.000000
					}
				}
			}
		}
	}
	JOINT Thigh.R
	{
		OFFSET -0.058019 0.027353 -0.101862
		CHANNELS 3 Xrotation Yrotation Zrotation
		JOINT Shin.R
		{
			OFFSET -0.043043 0.020731 -0.393181
			CHANNELS 3 Xrotation Yrotation Zrotation
			JOINT Foot.R
			{
				OFFSET 0.014879 0.021057 -0.436800
				CHANNELS 3 Xrotation Yrotation Zrotation
				JOINT Toe.R
				{
					OFFSET -0.036794 -0.119269 -0.063259
					CHANNELS 3 Xrotation Yrotation Zrotation
					End Site
					{
						OFFSET 0.000000 0.050000 0.000000
					}
				}
			}
		}
	}
	JOINT Spine
	{
		OFFSET -0.001893 0.019039 0.108405
		CHANNELS 3 Xrotation Yrotation Zrotation
		JOINT Spine.2
		{
			OFFSET 0.006381 0.002852 0.134148
			CHANNELS 3 Xrotation Yrotation Zrotation
			JOINT Chest
			{
				OFFSET -0.010125 -0.022001 0.049633
				CHANNELS 3 Xrotation Yrotation Zrotation
				JOINT Neck
				{
					OFFSET -0.009249 0.027500 0.163604
					CHANNELS 3 Xrotation Yrotation Zrotation
					JOINT Head
					{
						OFFSET 0.021968 -0.023703 0.170624
						CHANNELS 3 Xrotation Yrotation Zrotation
						End Site
						{
							OFFSET 0.000000 0.050000 0.000000
						}
					}
				}
				JOINT Clavicle.L
				{
					OFFSET 0.042953 0.007681 0.083561
					CHANNELS 3 Xrotation Yrotation Zrotation
					JOINT UpperArm.L
					{
						OFFSET 0.105092 0.014270 0.059994
						CHANNELS 3 Xrotation Yrotation Zrotation
						JOINT ForeArm.L
						{
							OFFSET 0.259988 0.035042 -0.074218
							CHANNELS 3 Xrotation Yrotation Zrotation
							JOINT Hand.L
							{
								OFFSET 0.258517 0.006030 0.020521
								CHANNELS 3 Xrotation Yrotation Zrotation
								JOINT Thumb1.L
								{
									OFFSET 0.154591 0.002789 0.009493
									CHANNELS 3 Xrotation Yrotation Zrotation
									JOINT Thumb2.L
									{
										OFFSET 0.029898 0.000697 0.002373
										CHANNELS 3 Xrotation Yrotation Zrotation
										End Site
										{
											OFFSET 0.024915 0.000581 0.001978
										}
									}
								}
								JOINT Index1.L
								{
									OFFSET 0.137591 0.002789 0.009493
									CHANNELS 3 Xrotation Yrotation Zrotation
									JOINT Index2.L
									{
										OFFSET 0.029898 0.000697 0.002373
										CHANNELS 3 Xrotation Yrotation Zrotation
										JOINT Index3.L
										{
											OFFSET 0.021925 0.000511 0.001740
											CHANNELS 3 Xrotation Yrotation Zrotation
											End Site
											{
												OFFSET 0.017939 0.000418 0.001424
											}
										}
									}
								}
								JOINT Middle1.L
								{
									OFFSET 0.119591 0.002789 0.009493
									CHANNELS 3 Xrotation Yrotation Zrotation
									JOINT Middle2.L
									{
										OFFSET 0.030894 0.000721 0.002452
										CHANNELS 3 Xrotation Yrotation Zrotation
										JOINT Middle3.L
										{
											OFFSET 0.021925 0.000511 0.001740
											CHANNELS 3 Xrotation Yrotation Zrotation
											End Site
											{
												OFFSET 0.017939 0.000418 0.001424
											}
										}
									}
								}
								JOINT Ring1.L
								{
									OFFSET 0.101591 0.002789 0.009493
									CHANNELS 3 Xrotation Yrotation Zrotation
									JOINT Ring2.L
									{
										OFFSET 0.028901 0.000674 0.002294
										CHANNELS 3 Xrotation Yrotation Zrotation
										JOINT Ring3.L
										{
											OFFSET 0.019932 0.000465 0.001582
											CHANNELS 3 Xrotation Yrotation Zrotation
											End Site
											{
												OFFSET 0.016942 0.000395 0.001345
											}
										}
									}
								}
								JOINT Pinky1.L
								{
									OFFSET 0.085591 0.002789 0.009493
									CHANNELS 3 Xrotation Yrotation Zrotation
									JOINT Pinky2.L
									{
										OFFSET 0.023918 0.000558 0.001899
										CHANNELS 3 Xrotation Yrotation Zrotation
										JOINT Pinky3.L
										{
											OFFSET 0.016942 0.000395 0.001345
											CHANNELS 3 Xrotation Yrotation Zrotation
											End Site
											{
												OFFSET 0.013952 0.000325 0.001108
											}
										}
									}
								}
							}
						}
					}
				}
				JOINT Clavicle.R
				{
					OFFSET -0.040926 0.013766 0.082935
					CHANNELS 3 Xrotation Yrotation Zrotation
					JOINT UpperArm.R
					{
						OFFSET -0.090871 0.009161 0.055866
						CHANNELS 3 Xrotation Yrotation Zrotation
						JOINT ForeArm.R
						{
							OFFSET -0.275543 0.022707 -0.042009
							CHANNELS 3 Xrotation Yrotation Zrotation
							JOINT Hand.R
							{
								OFFSET -0.255376 0.018388 -0.003775
								CHANNELS 3 Xrotation Yrotation Zrotation
								JOINT Thumb1.R
								{
									OFFSET -0.154677 0.008617 -0.001769
									CHANNELS 3 Xrotation Yrotation Zrotation
									JOINT Thumb2.R
									{
										OFFSET -0.029919 0.002154 -0.000442
										CHANNELS 3 Xrotation Yrotation Zrotation
										End Site
										{
											OFFSET -0.024933 0.001795 -0.000369
										}
									}
								}
								JOINT Index1.R
								{
									OFFSET -0.137677 0.008617 -0.001769
									CHANNELS 3 Xrotation Yrotation Zrotation
									JOINT Index2.R
									{
										OFFSET -0.029919 0.002154 -0.000442
										CHANNELS 3 Xrotation Yrotation Zrotation
										JOINT Index3.R
										{
											OFFSET -0.021941 0.001580 -0.000324
											CHANNELS 3 Xrotation Yrotation Zrotation
											End Site
											{
												OFFSET -0.017952 0.001293 -0.000265
											}
										}
									}
								}
								JOINT Middle1.R
								{
									OFFSET -0.119677 0.008617 -0.001769
									CHANNELS 3 Xrotation Yrotation Zrotation
									JOINT Middle2.R
									{
										OFFSET -0.030917 0.002226 -0.000457
										CHANNELS 3 Xrotation Yrotation Zrotation
										JOINT Middle3.R
										{
											OFFSET -0.021941 0.001580 -0.000324
											CHANNELS 3 Xrotation Yrotation Zrotation
											End Site
											{
												OFFSET -0.017952 0.001293 -0.000265
											}
										}
									}
								}
								JOINT Ring1.R
								{
									OFFSET -0.101677 0.008617 -0.001769
									CHANNELS 3 Xrotation Yrotation Zrotation
									JOINT Ring2.R
									{
										OFFSET -0.028922 0.002082 -0.000427
										CHANNELS 3 Xrotation Yrotation Zrotation
										JOINT Ring3.R
										{
											OFFSET -0.019946 0.001436 -0.000295
											CHANNELS 3 Xrotation Yrotation Zrotation
											End Site
											{
												OFFSET -0.016954 0.001221 -0.000251
											}
										}
									}
								}
								JOINT Pinky1.R
								{
									OFFSET -0.085677 0.008617 -0.001769
									CHANNELS 3 Xrotation Yrotation Zrotation
									JOINT Pinky2.R
									{
										OFFSET -0.023935 0.001723 -0.000354
										CHANNELS 3 Xrotation Yrotation Zrotation
										JOINT Pinky3.R
										{
											OFFSET -0.016954 0.001221 -0.000251
											CHANNELS 3 Xrotation Yrotation Zrotation
											End Site
											{
												OFFSET -0.013962 0.001005 -0.000206
											}
										}
									}
								}
							}
						}
					}
				}
			}
		}
	}
}
MOTION
Frames: 7
Frame Time: 0.04166667
0.199908 0.042771 1.031769 -9.528592 -10.610484 26.005184 -39.806190 -12.476282 -3.799132 69.858356 9.106337 -5.204243 -14.841303 3.817639 4.188032 -3.061409 -7.410460 0.663143 -30.950388 21.828230 -0.334471 75.852659 -3.029191 -7.332378 -31.382584 5.368478 -4.830716 0.415974 -4.184461 0.671795 24.059469 -0.589559 8.344166 3.545379 -0.259020 -0.172022 -7.428527 0.658973 6.791898 6.567556 4.541867 11.644809 2.494885 -0.142153 6.598582 -12.948000 2.883572 -17.723060 -13.002942 35.385630 -33.383283 -31.093001 -5.359043 -67.353680 -12.564075 -24.984811 -9.434575 0.000000 0.000000 0.000000 0.000000 0.000000 0.000000 0.000000 0.000000 0.000000 0.000000 0.000000 0.000000 0.000000 0.000000 0.000000 0.000000 0.000000 0.000000 0.000000 0.000000 0.000000 0.000000 0.000000 0.000000 0.000000 0.000000 0.000000 0.000000 0.000000 0.000000 0.000000 0.000000 0.000000 0.000000 0.000000 0.000000 0.000000 0.000000 0.000000 0.000000 0.000000 0.000000 -6.337608 -1.399476 24.206561 18.921192 -45.151961 54.138872 -9.091072 7.985224 82.337323 -25.510498 7.867058 9.603838 0.000000 0.000000 0.000000 0.000000 0.000000 0.000000 0.000000 0.000000 0.000000 0.000000 0.000000 0.000000 0.000000 0.000000 0.000000 0.000000 0.000000 0.000000 0.000000 0.000000 0.000000 0.000000 0.000000 0.000000 0.000000 0.000000 0.000000 0.000000 0.000000 0.000000 0.000000 0.000000 0.000000 0.000000 0.000000 0.000000 0.000000 0.000000 0.000000 0.000000 0.000000 0.000000
0.194596 0.030971 1.032716 -10.481682 -10.207214 22.338528 -38.364053 -12.966804 -3.677097 69.639892 9.247712 -6.025712 -16.422923 2.667233 6.058865 -2.749988 -7.006786 0.194589 -31.804769 21.681625 0.225237 75.061526 -2.870581 -6.905342 -31.855206 4.956534 -4.204651 0.815970 -4.032648 0.884271 24.163883 -0.013728 7.964777 3.473484 -0.285158 -0.134627 -7.416857 0.634251 6.786402 6.668509 4.729101 10.874274 2.561395 -1.086688 5.794103 -12.983804 3.175851 -17.976222 -14.503067 33.843398 -33.183576 -34.297566 -3.693637 -63.998667 -15.023622 -25.286930 -8.759667 0.000000 0.000000 0.000000 0.000000 0.000000 0.000000 0.000000 0.000000 0.000000 0.000000 0.000000 0.000000 0.000000 0.000000 0.000000 0.000000 0.000000 0.000000 0.000000 0.000000 0.000000 0.000000 0.000000 0.000000 0.000000 0.000000 0.000000 0.000000 0.000000 0.000000 0.000000 0.000000 0.000000 0.000000 0.000000 0.000000 0.000000 0.000000 0.000000 0.000000 0.000000 0.000000 -5.206064 -2.352904 24.148832 23.515547 -45.318027 54.971069 -2.922677 8.999489 81.467934 -24.674825 6.681103 9.023154 0.000000 0.000000 0.000000 0.000000 0.000000 0.000000 0.000000 0.000000 0.000000 0.000000 0.000000 0.000000 0.000000 0.000000 0.000000 0.000000 0.000000 0.000000 0.000000 0.000000 0.000000 0.000000 0.000000 0.000000 0.000000 0.000000 0.000000 0.000000 0.000000 0.000000 0.000000 0.000000 0.000000 0.000000 0.000000 0.000000 0.000000 0.000000 0.000000 0.000000 0.000000 0.000000
0.171965 0.009313 1.035337 -11.754215 -8.269236 16.315124 -36.083142 -13.976350 -3.153636 68.294029 8.460457 -6.338580 -18.953344 1.068983 7.966727 -2.753529 -6.957593 -0.356945 -32.368043 20.646159 0.583174 72.370996 -3.209151 -6.354060 -32.102921 4.620952 -1.904021 0.744935 -4.452663 0.988465 24.279219 0.074848 6.940624 3.606907 -0.821322 -0.789357 -7.219281 0.126879 6.072817 6.864465 5.141988 9.359631 2.223809 -1.970886 5.199377 -12.870786 3.313918 -18.910222 -13.573605 35.909875 -35.399968 -35.173909 -2.637510 -67.629259 -16.836066 -25.071694 -9.688992 0.000000 0.000000 0.000000 0.000000 0.000000 0.000000 0.000000 0.000000 0.000000 0.000000 0.000000 0.000000 0.000000 0.000000 0.000000 0.000000 0.000000 0.000000 0.000000 0.000000 0.000000 0.000000 0.000000 0.000000 0.000000 0.000000 0.000000 0.000000 0.000000 0.000000 0.000000 0.000000 0.000000 0.000000 0.000000 0.000000 0.000000 0.000000 0.000000 0.000000 0.000000 0.000000 -4.318670 -2.723629 23.799357 26.388649 -45.813152 54.352349 1.396457 10.119951 82.303000 -23.037512 5.328416 8.685138 0.000000 0.000000 0.000000 0.000000 0.000000 0.000000 0.000000 0.000000 0.000000 0.000000 0.000000 0.000000 0.000000 0.000000 0.000000 0.000000 0.000000 0.000000 0.000000 0.000000 0.000000 0.000000 0.000000 0.000000 0.000000 0.000000 0.000000 0.000000 0.000000 0.000000 0.000000 0.000000 0.000000 0.000000 0.000000 0.000000 0.000000 0.000000 0.000000 0.000000 0.000000 0.000000
0.117438 -0.014393 1.037431 -12.367376 -4.351172 8.058775 -33.820489 -15.129865 -2.490964 66.824466 7.449752 -5.716141 -23.138383 -1.203929 10.337904 -2.858674 -7.411741 -0.887757 -34.336635 19.001392 1.453638 69.441451 -4.299790 -5.530749 -28.928871 3.015390 0.956855 0.864797 -5.088825 1.114440 24.150872 0.198828 5.232343 4.009880 -1.718846 -2.136890 -7.376476 -0.410245 4.898529 7.718384 5.917783 9.053547 1.556756 -2.624475 5.112423 -12.356307 3.050327 -20.771494 -12.088622 38.655901 -38.369879 -34.388639 -2.751876 -72.101304 -15.247531 -23.163369 -10.985714 0.000000 0.000000 0.000000 0.000000 0.000000 0.000000 0.000000 0.000000 0.000000 0.000000 0.000000 0.000000 0.000000 0.000000 0.000000 0.000000 0.000000 0.000000 0.000000 0.000000 0.000000 0.000000 0.000000 0.000000 0.000000 0.000000 0.000000 0.000000 0.000000 0.000000 0.000000 0.000000 0.000000 0.000000 0.000000 0.000000 0.000000 0.000000 0.000000 0.000000 0.000000 0.000000 -4.059542 -2.279435 23.431073 28.373367 -46.394417 54.037592 4.603237 11.171019 85.911445 -23.126700 3.338979 8.795382 0.000000 0.000000 0.000000 0.000000 0.000000 0.000000 0.000000 0.000000 0.000000 0.000000 0.000000 0.000000 0.000000 0.000000 0.000000 0.000000 0.000000 0.000000 0.000000 0.000000 0.000000 0.000000 0.000000 0.000000 0.000000 0.000000 0.000000 0.000000 0.000000 0.000000 0.000000 0.000000 0.000000 0.000000 0.000000 0.000000 0.000000 0.000000 0.000000 0.000000 0.000000 0.000000
0.058351 -0.022166 1.038557 -11.512280 -0.068885 -1.461495 -31.851431 -17.058808 -1.626365 65.581697 6.926593 -3.877261 -27.099812 -2.247543 11.796275 -2.733898 -7.866513 -1.272695 -36.871672 17.167021 2.108840 67.823366 -5.758710 -4.511343 -24.647844 0.717964 3.968451 1.278984 -5.747148 1.149107 23.751477 0.836961 3.322695 4.916936 -2.536537 -3.923769 -8.100156 -0.749304 3.438412 8.053448 6.212314 9.618204 0.618879 -3.213980 5.543153 -11.201896 2.548041 -22.472196 -9.891255 39.938467 -40.117180 -32.096625 -3.732638 -75.705657 -14.318033 -20.792693 -12.397996 0.000000 0.000000 0.000000 0.000000 0.000000 0.000000 0.000000 0.000000 0.000000 0.000000 0.000000 0.000000 0.000000 0.000000 0.000000 0.000000 0.000000 0.000000 0.000000 0.000000 0.000000 0.000000 0.000000 0.000000 0.000000 0.000000 0.000000 0.000000 0.000000 0.000000 0.000000 0.000000 0.000000 0.000000 0.000000 0.000000 0.000000 0.000000 0.000000 0.000000 0.000000 0.000000 -5.836410 -0.511553 22.651114 29.323874 -47.115842 54.647712 3.791463 10.377095 91.668696 -29.032305 1.708915 9.393419 0.000000 0.000000 0.000000 0.000000 0.000000 0.000000 0.000000 0.000000 0.000000 0.000000 0.000000 0.000000 0.000000 0.000000 0.000000 0.000000 0.000000 0.000000 0.000000 0.000000 0.000000 0.000000 0.000000 0.000000 0.000000 0.000000 0.000000 0.000000 0.000000 0.000000 0.000000 0.000000 0.000000 0.000000 0.000000 0.000000 0.000000 0.000000 0.000000 0.000000 0.000000 0.000000
0.039780 -0.013773 1.037276 -10.276340 2.702464 -9.220613 -30.169066 -18.763851 -1.496405 65.382457 5.838767 -2.020495 -27.418641 -2.343993 13.181381 -2.675559 -8.202685 -1.337904 -38.228746 15.942112 2.567923 68.569893 -7.517663 -3.557392 -22.392852 0.340753 4.284744 1.814511 -6.329110 1.266309 23.166732 1.336669 1.640382 5.392714 -3.280302 -5.385838 -8.343731 -0.547354 2.048137 8.596470 5.611723 9.579225 0.136788 -3.050335 6.184355 -9.297435 2.720646 -23.341496 -7.112355 41.463709 -41.877108 -28.343247 -5.815907 -77.919568 -15.991828 -18.045653 -13.384538 0.000000 0.000000 0.000000 0.000000 0.000000 0.000000 0.000000 0.000000 0.000000 0.000000 0.000000 0.000000 0.000000 0.000000 0.000000 0.000000 0.000000 0.000000 0.000000 0.000000 0.000000 0.000000 0.000000 0.000000 0.000000 0.000000 0.000000 0.000000 0.000000 0.000000 0.000000 0.000000 0.000000 0.000000 0.000000 0.000000 0.000000 0.000000 0.000000 0.000000 0.000000 0.000000 -7.610278 1.225576 20.890738 25.849466 -46.367761 53.422657 -0.627360 9.223287 100.452699 -34.821755 1.531103 9.566638 0.000000 0.000000 0.000000 0.000000 0.000000 0.000000 0.000000 0.000000 0.000000 0.000000 0.000000 0.000000 0.000000 0.000000 0.000000 0.000000 0.000000 0.000000 0.000000 0.000000 0.000000 0.000000 0.000000 0.000000 0.000000 0.000000 0.000000 0.000000 0.000000 0.000000 0.000000 0.000000 0.000000 0.000000 0.000000 0.000000 0.000000 0.000000 0.000000 0.000000 0.000000 0.000000
0.027677 -0.008533 1.034386 -9.748079 4.592423 -14.066102 -29.172957 -19.521094 -1.605749 66.274913 5.074343 -1.050147 -26.878188 -1.279250 13.206179 -3.206745 -9.173829 -1.313618 -39.037188 15.421812 3.067067 69.516236 -8.294292 -3.296896 -20.261140 0.684797 3.389805 1.389944 -6.895037 0.849227 23.435945 1.459664 0.277287 5.441464 -3.866582 -7.157320 -7.813896 -0.579155 0.649137 8.006135 4.627826 8.180962 -0.014995 -2.758093 7.113239 -6.398274 3.641968 -23.123822 -2.172654 44.293287 -43.551570 -22.658641 -9.473525 -83.548864 -18.842019 -13.773470 -14.660636 0.000000 0.000000 0.000000 0.000000 0.000000 0.000000 0.000000 0.000000 0.000000 0.000000 0.000000 0.000000 0.000000 0.000000 0.000000 0.000000 0.000000 0.000000 0.000000 0.000000 0.000000 0.000000 0.000000 0.000000 0.000000 0.000000 0.000000 0.000000 0.000000 0.000000 0.000000 0.000000 0.000000 0.000000 0.000000 0.000000 0.000000 0.000000 0.000000 0.000000 0.000000 0.000000 -9.825753 2.947849 18.727571 16.103389 -45.110257 49.090877 -12.549904 7.406407 107.739164 -30.858552 4.669396 9.945592 0.000000 0.000000 0.000000 0.000000 0.000000 0.000000 0.000000 0.000000 0.000000 0.000000 0.000000 0.000000 0.000000 0.000000 0.000000 0.000000 0.000000 0.000000 0.000000 0.000000 0.000000 0.000000 0.000000 0.000000 0.000000 0.000000 0.000000 0.000000 0.000000 0.000000 0.000000 0.000000 0.000000 0.000000 0.000000 0.000000 0.000000 0.000000 0.000000 0.000000 0.000000 0.000000
